<svg xmlns="http://www.w3.org/2000/svg" width="20" height="20" viewBox="0 0 24 24" fill="none" stroke="#5D8AA8" stroke-width="2" stroke-linecap="round" stroke-linejoin="round">
    <line x1="12" y1="1" x2="12" y2="3"></line>
    <line x1="12" y1="21" x2="12" y2="23"></line>
    <line x1="4.22" y1="4.22" x2="5.64" y2="5.64"></line>
    <line x1="18.36" y1="18.36" x2="19.78" y2="19.78"></line>
    <line x1="1" y1="12" x2="3" y2="12"></line>
    <line x1="21" y1="12" x2="23" y2="12"></line>
    <line x1="4.22" y1="19.78" x2="5.64" y2="18.36"></line>
    <line x1="18.36" y1="5.64" x2="19.78" y2="4.22"></line>
    <path d="M12 6C9.24 6 7 8.24 7 11c0 2.22 1.21 4.15 3 5.19V18h4v-1.81c1.79-.99 3-2.97 3-5.19c0-2.76-2.24-5-5-5z"></path>
</svg>